{"title":"The Terminator (1984) ac3 5.1 x265 - FANT.mkv","uid":14723096,"size":2285842673,"categoryP":"video","categoryS":"hd___movies","magnet":"?xt=urn:btih:f58e10fff3644c9b4834e65ff2d63b6b70e78ab5&amp;dn=The+Terminator+%281984%29+ac3+5.1+x265+-+FANT.mkv&amp;tr=udp%3A%2F%2Ftracker.leechers-paradise.org%3A6969&amp;tr=udp%3A%2F%2Fzer0day.ch%3A1337&amp;tr=udp%3A%2F%2Fopen.demonii.com%3A1337&amp;tr=udp%3A%2F%2Ftracker.coppersurfer.tk%3A6969&amp;tr=udp%3A%2F%2Fexodus.desync.com%3A6969","seeders":0,"leechers":1,"uploader":"fant44000","files":1,"time":1464528896,"description":"General\r\nFormat                                   : Matroska\r\nFormat version                           : Version 2\r\nFile size                                : 2.13 GiB\r\nDuration                                 : 1h 47mn\r\nOverall bit rate                         : 2 840 Kbps\r\nEncoded date                             : UTC 2016-05-29T07:12:28Z\r\nWriting application                      : HandBrake 0.10.5 2016021100\r\nWriting library                          : Lavf55.12.0 / Lavf55.12.0\r\n\r\nVideo\r\nID                                       : 1\r\nFormat                                   : HEVC\r\nFormat/Info                              : High Efficiency Video Coding\r\nFormat profile                           :   @Main\r\nCodec ID                                 : V_MPEGH/ISO/HEVC\r\nDuration                                 : 1h 47mn\r\nBit rate                                 : 2 464 Kbps\r\nWidth                                    : 1 920 pixels\r\nHeight                                   : 1 040 pixels\r\nDisplay aspect ratio                     : 1.85:1\r\nFrame rate mode                          : Constant\r\nFrame rate                               : 23.976 (24000/1001) fps\r\nColor space                              : YUV\r\nChroma subsampling                       : 4:2:0\r\nBit depth                                : 8 bits\r\nBits/(Pixel*Frame)                       : 0.051\r\nStream size                              : 1.85 GiB (87%)\r\nWriting library                          : x265 1.9:[Windows][GCC 4.9.0][64 bit] 8bit\r\nEncoding settings                        : wpp / ctu=64 / min-cu-size=8 / max-tu-size=32 / tu-intra-depth=1 / tu-inter-depth=1 / me=1 / subme=2 / merange=57 / no-rect / no-amp / max-merge=2 / temporal-mvp / no-early-skip / rdpenalty=0 / no-tskip / no-tskip-fast / strong-intra-smoothing / no-lossless / no-cu-lossless / no-constrained-intra / fast-intra / open-gop / no-temporal-layers / interlace=0 / keyint=240 / min-keyint=24 / scenecut=40 / rc-lookahead=10 / lookahead-slices=6 / bframes=4 / bframe-bias=0 / b-adapt=0 / ref=1 / limit-refs=3 / no-limit-modes / weightp / no-weightb / aq-mode=1 / qg-size=32 / aq-strength=1.00 / cbqpoffs=0 / crqpoffs=0 / rd=2 / psy-rd=2.00 / rdoq-level=0 / psy-rdoq=0.00 / signhide / deblock / sao / no-sao-non-deblock / b-pyramid / cutree / no-intra-refresh / rc=2 / pass / bitrate=2500 / qcomp=0.60 / qpmin=0 / qpmax=51 / qpstep=4 / cplxblur=20.0 / qblur=0.5 / vbv-maxrate=12000 / vbv-bufsize=12000 / ipratio=1.40 / pbratio=1.30\r\nDefault                                  : Yes\r\nForced                                   : No\r\nColor range                              : Limited\r\nColor primaries                          : BT.709\r\nTransfer characteristics                 : BT.709\r\nMatrix coefficients                      : BT.709\r\n\r\nAudio\r\nID                                       : 2\r\nFormat                                   : AC-3\r\nFormat/Info                              : Audio Coding 3\r\nMode extension                           : CM (complete main)\r\nFormat settings, Endianness              : Big\r\nCodec ID                                 : A_AC3\r\nDuration                                 : 1h 47mn\r\nBit rate mode                            : Constant\r\nBit rate                                 : 320 Kbps\r\nChannel(s)                               : 6 channels\r\nChannel positions                        : Front: L C R, Side: L R, LFE\r\nSampling rate                            : 48.0 KHz\r\nFrame rate                               : 31.250 fps (1536 spf)\r\nCompression mode                         : Lossy\r\nDelay relative to video                  : -5ms\r\nStream size                              : 246 MiB (11%)\r\nTitle                                    : Surround\r\nLanguage                                 : English\r\nDefault                                  : Yes\r\nForced                                   : No\r\n\r\nText\r\nID                                       : 3\r\nFormat                                   : PGS\r\nCodec ID                                 : S_HDMV/PGS\r\nCodec ID/Info                            : Picture based subtitle format used on BDs/HD-DVDs\r\nLanguage                                 : English\r\nDefault                                  : No\r\nForced                                   : No","torrent":{"xt":"urn:btih:f58e10fff3644c9b4834e65ff2d63b6b70e78ab5","amp;dn":"The+Terminator+%281984%29+ac3+5.1+x265+-+FANT.mkv","amp;tr":["udp%3A%2F%2Ftracker.leechers-paradise.org%3A6969","udp%3A%2F%2Fzer0day.ch%3A1337","udp%3A%2F%2Fopen.demonii.com%3A1337","udp%3A%2F%2Ftracker.coppersurfer.tk%3A6969","udp%3A%2F%2Fexodus.desync.com%3A6969"],"infoHash":"f58e10fff3644c9b4834e65ff2d63b6b70e78ab5","infoHashBuffer":{"type":"Buffer","data":[245,142,16,255,243,100,76,155,72,52,230,95,242,214,59,107,112,231,138,181]},"announce":[],"urlList":[]}}